<?xml version="1.0" encoding="utf-8" ?>
<svg baseProfile="full" height="470" version="1.1" width="1183.3333333333335" xmlns="http://www.w3.org/2000/svg" xmlns:ev="http://www.w3.org/2001/xml-events" xmlns:xlink="http://www.w3.org/1999/xlink"><defs /><line stroke="black" stroke-width="1" x1="50" x2="783.3333333333334" y1="30" y2="30" /><line stroke="black" stroke-width="1" x1="50.0" x2="50.0" y1="30" y2="35" /><text fill="black" font-size="9px" text-anchor="middle" x="50.0" y="27">0 kb</text><line stroke="black" stroke-width="1" x1="116.66666666666667" x2="116.66666666666667" y1="30" y2="35" /><text fill="black" font-size="9px" text-anchor="middle" x="116.66666666666667" y="27">1 kb</text><line stroke="black" stroke-width="1" x1="183.33333333333334" x2="183.33333333333334" y1="30" y2="35" /><text fill="black" font-size="9px" text-anchor="middle" x="183.33333333333334" y="27">2 kb</text><line stroke="black" stroke-width="1" x1="250.0" x2="250.0" y1="30" y2="35" /><text fill="black" font-size="9px" text-anchor="middle" x="250.0" y="27">3 kb</text><line stroke="black" stroke-width="1" x1="316.6666666666667" x2="316.6666666666667" y1="30" y2="35" /><text fill="black" font-size="9px" text-anchor="middle" x="316.6666666666667" y="27">4 kb</text><line stroke="black" stroke-width="1" x1="383.3333333333333" x2="383.3333333333333" y1="30" y2="35" /><text fill="black" font-size="9px" text-anchor="middle" x="383.3333333333333" y="27">5 kb</text><line stroke="black" stroke-width="1" x1="450.0" x2="450.0" y1="30" y2="35" /><text fill="black" font-size="9px" text-anchor="middle" x="450.0" y="27">6 kb</text><line stroke="black" stroke-width="1" x1="516.6666666666667" x2="516.6666666666667" y1="30" y2="35" /><text fill="black" font-size="9px" text-anchor="middle" x="516.6666666666667" y="27">7 kb</text><line stroke="black" stroke-width="1" x1="583.3333333333334" x2="583.3333333333334" y1="30" y2="35" /><text fill="black" font-size="9px" text-anchor="middle" x="583.3333333333334" y="27">8 kb</text><line stroke="black" stroke-width="1" x1="650.0" x2="650.0" y1="30" y2="35" /><text fill="black" font-size="9px" text-anchor="middle" x="650.0" y="27">9 kb</text><line stroke="black" stroke-width="1" x1="716.6666666666666" x2="716.6666666666666" y1="30" y2="35" /><text fill="black" font-size="9px" text-anchor="middle" x="716.6666666666666" y="27">10 kb</text><line stroke="black" stroke-width="1" x1="783.3333333333334" x2="783.3333333333334" y1="30" y2="35" /><text fill="black" font-size="9px" text-anchor="middle" x="783.3333333333334" y="27">11 kb</text><line stroke="black" stroke-width="1" x1="82.93333333333334" x2="488.73333333333335" y1="57" y2="57" /><rect fill="white" height="15" stroke="black" stroke-width="1" width="11.266666666666666" x="82.93333333333334" y="50" /><rect fill="dodgerblue" height="15" stroke="black" stroke-width="1" width="22.53333333333333" x="94.26666666666667" y="50" /><rect fill="dodgerblue" height="15" stroke="black" stroke-width="1" width="4.933333333333309" x="180.8" y="50" /><rect fill="dodgerblue" height="15" stroke="black" stroke-width="1" width="3.5333333333333314" x="195.4" y="50" /><rect fill="dodgerblue" height="15" stroke="black" stroke-width="1" width="4.333333333333314" x="204.86666666666667" y="50" /><rect fill="dodgerblue" height="15" stroke="black" stroke-width="1" width="6.466666666666669" x="232.6" y="50" /><rect fill="dodgerblue" height="15" stroke="black" stroke-width="1" width="3.666666666666657" x="245.8" y="50" /><rect fill="dodgerblue" height="15" stroke="black" stroke-width="1" width="7.666666666666657" x="255.46666666666667" y="50" /><rect fill="dodgerblue" height="15" stroke="black" stroke-width="1" width="2.7333333333333485" x="268.8666666666667" y="50" /><rect fill="dodgerblue" height="15" stroke="black" stroke-width="1" width="6.666666666666629" x="278.4666666666667" y="50" /><rect fill="dodgerblue" height="15" stroke="black" stroke-width="1" width="6.333333333333314" x="291.93333333333334" y="50" /><rect fill="dodgerblue" height="15" stroke="black" stroke-width="1" width="4.266666666666708" x="310.3333333333333" y="50" /><rect fill="dodgerblue" height="15" stroke="black" stroke-width="1" width="4.7333333333333485" x="319.8666666666667" y="50" /><rect fill="dodgerblue" height="15" stroke="black" stroke-width="1" width="10.333333333333371" x="335.26666666666665" y="50" /><rect fill="dodgerblue" height="15" stroke="black" stroke-width="1" width="15.666666666666686" x="352.46666666666664" y="50" /><rect fill="dodgerblue" height="15" stroke="black" stroke-width="1" width="2.0" x="374.93333333333334" y="50" /><rect fill="dodgerblue" height="15" stroke="black" stroke-width="1" width="9.666666666666629" x="384.6666666666667" y="50" /><rect fill="dodgerblue" height="15" stroke="black" stroke-width="1" width="6.7333333333333485" x="400.93333333333334" y="50" /><rect fill="dodgerblue" height="15" stroke="black" stroke-width="1" width="2.933333333333337" x="414.6" y="50" /><rect fill="dodgerblue" height="15" stroke="black" stroke-width="1" width="9.333333333333371" x="424.26666666666665" y="50" /><rect fill="dodgerblue" height="15" stroke="black" stroke-width="1" width="25.133333333333326" x="439.1333333333333" y="50" /><polygon fill="white" points="464.3333333333333,50 481.73333333333335,50 488.73333333333335,57.5 481.73333333333335,65 464.3333333333333,65" stroke="black" stroke-width="1" /><text fill="black" font-family="monospace" font-size="10px" text-anchor="middle" x="285.83333333333337" y="85">Os02t0102800-01</text><line stroke="black" stroke-width="1" x1="313.06666666666666" x2="480.4" y1="147" y2="147" /><rect fill="white" height="15" stroke="black" stroke-width="1" width="0.06666666666666288" x="313.06666666666666" y="140" /><rect fill="dodgerblue" height="15" stroke="black" stroke-width="1" width="1.400000000000034" x="313.2" y="140" /><rect fill="dodgerblue" height="15" stroke="black" stroke-width="1" width="4.7333333333333485" x="319.8666666666667" y="140" /><rect fill="dodgerblue" height="15" stroke="black" stroke-width="1" width="10.333333333333371" x="335.26666666666665" y="140" /><rect fill="dodgerblue" height="15" stroke="black" stroke-width="1" width="15.666666666666686" x="352.46666666666664" y="140" /><rect fill="dodgerblue" height="15" stroke="black" stroke-width="1" width="2.0" x="374.93333333333334" y="140" /><rect fill="dodgerblue" height="15" stroke="black" stroke-width="1" width="9.666666666666629" x="384.6666666666667" y="140" /><rect fill="dodgerblue" height="15" stroke="black" stroke-width="1" width="6.7333333333333485" x="400.93333333333334" y="140" /><rect fill="dodgerblue" height="15" stroke="black" stroke-width="1" width="2.933333333333337" x="414.6" y="140" /><rect fill="dodgerblue" height="15" stroke="black" stroke-width="1" width="9.333333333333371" x="424.26666666666665" y="140" /><rect fill="dodgerblue" height="15" stroke="black" stroke-width="1" width="2.53333333333336" x="439.1333333333333" y="140" /><rect fill="dodgerblue" height="15" stroke="black" stroke-width="1" width="1.3333333333333712" x="461.26666666666665" y="140" /><polygon fill="white" points="462.6666666666667,140 473.4,140 480.4,147.5 473.4,155 462.6666666666667,155" stroke="black" stroke-width="1" /><text fill="black" font-family="monospace" font-size="10px" text-anchor="middle" x="396.73333333333335" y="175">Os02t0102800-02</text><line stroke="black" stroke-width="1" x1="502.8666666666667" x2="719.0666666666667" y1="237" y2="237" /><rect fill="white" height="15" stroke="black" stroke-width="1" width="36.33333333333337" x="502.8666666666667" y="230" /><rect fill="dodgerblue" height="15" stroke="black" stroke-width="1" width="19.933333333333394" x="539.2666666666667" y="230" /><rect fill="white" height="15" stroke="black" stroke-width="1" width="7.06666666666672" x="559.2666666666667" y="230" /><rect fill="white" height="15" stroke="black" stroke-width="1" width="7.600000000000023" x="582.8" y="230" /><polygon fill="white" points="604.9333333333333,230 712.0666666666667,230 719.0666666666667,237.5 712.0666666666667,245 604.9333333333333,245" stroke="black" stroke-width="1" /><text fill="black" font-family="monospace" font-size="10px" text-anchor="middle" x="610.9666666666667" y="265">Os02t0102850-01</text><rect fill="dodgerblue" height="12" stroke="black" width="12" x="833.3333333333334" y="30" /><text fill="black" font-size="12px" x="850.3333333333334" y="40">Exon/CDS</text><rect fill="white" height="12" stroke="black" width="12" x="833.3333333333334" y="50" /><text fill="black" font-size="12px" x="850.3333333333334" y="60">5' UTR</text><rect fill="white" height="12" stroke="black" width="12" x="833.3333333333334" y="70" /><text fill="black" font-size="12px" x="850.3333333333334" y="80">3' UTR</text><line stroke="black" stroke-width="1" x1="833.3333333333334" x2="845.3333333333334" y1="96" y2="96" /><text fill="black" font-size="12px" x="850.3333333333334" y="100">Intron</text></svg>