<?xml version="1.0" encoding="utf-8" ?>
<svg baseProfile="full" height="210" version="1.1" width="818.2" xmlns="http://www.w3.org/2000/svg" xmlns:ev="http://www.w3.org/2001/xml-events" xmlns:xlink="http://www.w3.org/1999/xlink"><defs /><line stroke="black" stroke-width="1" x1="50" x2="418.2" y1="30" y2="30" /><line stroke="black" stroke-width="1" x1="116.6" x2="116.6" y1="30" y2="35" /><text fill="black" font-size="9px" text-anchor="middle" x="116.6" y="25">1 kb</text><line stroke="black" stroke-width="1" x1="183.26666666666668" x2="183.26666666666668" y1="30" y2="35" /><text fill="black" font-size="9px" text-anchor="middle" x="183.26666666666668" y="25">2 kb</text><line stroke="black" stroke-width="1" x1="249.93333333333334" x2="249.93333333333334" y1="30" y2="35" /><text fill="black" font-size="9px" text-anchor="middle" x="249.93333333333334" y="25">3 kb</text><line stroke="black" stroke-width="1" x1="316.6" x2="316.6" y1="30" y2="35" /><text fill="black" font-size="9px" text-anchor="middle" x="316.6" y="25">4 kb</text><line stroke="black" stroke-width="1" x1="383.26666666666665" x2="383.26666666666665" y1="30" y2="35" /><text fill="black" font-size="9px" text-anchor="middle" x="383.26666666666665" y="25">5 kb</text><line stroke="black" stroke-width="1" x1="73.33333333333333" x2="418.2" y1="97" y2="97" /><polyline fill="none" points="50.0,97 61.63333333333333,87 73.26666666666667,97" stroke="black" stroke-dasharray="2,2" stroke-width="1" /><rect fill="white" height="15" stroke="black" stroke-width="1" width="3.333333333333343" x="73.33333333333333" y="90" /><rect fill="white" height="15" stroke="black" stroke-width="1" width="5.666666666666686" x="149.26666666666665" y="90" /><rect fill="dodgerblue" height="15" stroke="black" stroke-width="1" width="97.13333333333333" x="155.0" y="90" /><rect fill="dodgerblue" height="15" stroke="black" stroke-width="1" width="9.333333333333371" x="258.0" y="90" /><rect fill="dodgerblue" height="15" stroke="black" stroke-width="1" width="3.3333333333333144" x="307.53333333333336" y="90" /><rect fill="dodgerblue" height="15" stroke="black" stroke-width="1" width="5.133333333333326" x="340.8666666666667" y="90" /><rect fill="dodgerblue" height="15" stroke="black" stroke-width="1" width="9.533333333333303" x="350.93333333333334" y="90" /><rect fill="dodgerblue" height="15" stroke="black" stroke-width="1" width="8.733333333333292" x="392.6666666666667" y="90" /><polygon fill="white" points="401.46666666666664,90 411.2,90 418.2,97.5 411.2,105 401.46666666666664,105" stroke="black" stroke-width="1" /><rect fill="lightblue" height="15" stroke="black" stroke-width="1" width="19.933333333333337" x="155.0" y="90" /><rect fill="lightcoral" height="15" stroke="black" stroke-width="1" width="19.933333333333337" x="175.0" y="90" /><rect fill="lightgreen" height="15" stroke="black" stroke-width="1" width="19.933333333333337" x="195.0" y="90" /><rect fill="dodgerblue" height="12" stroke="black" stroke-width="1" width="12" x="518.2" y="30" /><text fill="black" font-size="11px" x="536.2" y="40">Exon/CDS</text><rect fill="white" height="12" stroke="black" stroke-width="1" width="12" x="518.2" y="50" /><text fill="black" font-size="11px" x="536.2" y="60">5' UTR</text><rect fill="white" height="12" stroke="black" stroke-width="1" width="12" x="518.2" y="70" /><text fill="black" font-size="11px" x="536.2" y="80">3' UTR</text><line stroke="black" stroke-width="1" x1="518.2" x2="530.2" y1="96" y2="96" /><text fill="black" font-size="11px" x="536.2" y="100">Intron</text><polyline fill="none" points="518.2,116 524.2,110 530.2,116" stroke="black" stroke-dasharray="2,2" stroke-width="1.5" /><text fill="black" font-size="11px" x="536.2" y="120">Deletion</text><rect fill="lightblue" height="12" stroke="black" stroke-width="1" width="12" x="518.2" y="130" /><text fill="black" font-size="11px" x="536.2" y="140">Kinase</text><rect fill="lightcoral" height="12" stroke="black" stroke-width="1" width="12" x="518.2" y="150" /><text fill="black" font-size="11px" x="536.2" y="160">domain1</text><rect fill="lightgreen" height="12" stroke="black" stroke-width="1" width="12" x="518.2" y="170" /><text fill="black" font-size="11px" x="536.2" y="180">domain2</text></svg>