<?xml version="1.0" encoding="utf-8" ?>
<svg baseProfile="full" height="145" version="1.1" width="818.2" xmlns="http://www.w3.org/2000/svg" xmlns:ev="http://www.w3.org/2001/xml-events" xmlns:xlink="http://www.w3.org/1999/xlink"><defs /><line stroke="black" stroke-width="1" x1="50" x2="418.2" y1="30" y2="30" /><line stroke="black" stroke-width="1" x1="61.0" x2="61.0" y1="30" y2="35" /><text fill="black" font-size="9px" text-anchor="middle" x="61.0" y="25">33023 kb</text><line stroke="black" stroke-width="1" x1="127.66666666666667" x2="127.66666666666667" y1="30" y2="35" /><text fill="black" font-size="9px" text-anchor="middle" x="127.66666666666667" y="25">33024 kb</text><line stroke="black" stroke-width="1" x1="194.33333333333334" x2="194.33333333333334" y1="30" y2="35" /><text fill="black" font-size="9px" text-anchor="middle" x="194.33333333333334" y="25">33025 kb</text><line stroke="black" stroke-width="1" x1="261.0" x2="261.0" y1="30" y2="35" /><text fill="black" font-size="9px" text-anchor="middle" x="261.0" y="25">33026 kb</text><line stroke="black" stroke-width="1" x1="327.6666666666667" x2="327.6666666666667" y1="30" y2="35" /><text fill="black" font-size="9px" text-anchor="middle" x="327.6666666666667" y="25">33027 kb</text><line stroke="black" stroke-width="1" x1="394.3333333333333" x2="394.3333333333333" y1="30" y2="35" /><text fill="black" font-size="9px" text-anchor="middle" x="394.3333333333333" y="25">33028 kb</text><line stroke="black" stroke-width="1" x1="50.0" x2="418.2" y1="97" y2="97" /><rect fill="white" height="15" stroke="black" stroke-width="1" width="26.66666666666667" x="50.0" y="90" /><rect fill="white" height="15" stroke="black" stroke-width="1" width="5.666666666666686" x="149.26666666666665" y="90" /><rect fill="dodgerblue" height="15" stroke="black" stroke-width="1" width="97.13333333333333" x="155.0" y="90" /><rect fill="dodgerblue" height="15" stroke="black" stroke-width="1" width="9.333333333333371" x="258.0" y="90" /><rect fill="dodgerblue" height="15" stroke="black" stroke-width="1" width="3.3333333333333144" x="307.53333333333336" y="90" /><rect fill="dodgerblue" height="15" stroke="black" stroke-width="1" width="5.133333333333326" x="340.8666666666667" y="90" /><rect fill="dodgerblue" height="15" stroke="black" stroke-width="1" width="9.533333333333303" x="350.93333333333334" y="90" /><rect fill="dodgerblue" height="15" stroke="black" stroke-width="1" width="8.733333333333292" x="392.6666666666667" y="90" /><polygon fill="white" points="401.46666666666664,90 411.2,90 418.2,97.5 411.2,105 401.46666666666664,105" stroke="black" stroke-width="1" /><rect fill="dodgerblue" height="12" stroke="black" stroke-width="1" width="12" x="518.2" y="30" /><text fill="black" font-size="11px" x="536.2" y="40">Exon/CDS</text><rect fill="white" height="12" stroke="black" stroke-width="1" width="12" x="518.2" y="50" /><text fill="black" font-size="11px" x="536.2" y="60">5' UTR</text><rect fill="white" height="12" stroke="black" stroke-width="1" width="12" x="518.2" y="70" /><text fill="black" font-size="11px" x="536.2" y="80">3' UTR</text><line stroke="black" stroke-width="1" x1="518.2" x2="530.2" y1="96" y2="96" /><text fill="black" font-size="11px" x="536.2" y="100">Intron</text></svg>