<?xml version="1.0" encoding="utf-8" ?>
<svg baseProfile="full" height="300" version="1.1" width="818.2" xmlns="http://www.w3.org/2000/svg" xmlns:ev="http://www.w3.org/2001/xml-events" xmlns:xlink="http://www.w3.org/1999/xlink"><defs /><rect fill="white" height="15" stroke="black" stroke-width="1" width="26.666666666666686" x="50.0" y="50" /><line stroke="black" stroke-width="1" x1="76.73333333333335" x2="149.20000000000002" y1="57" y2="57" /><rect fill="white" height="15" stroke="black" stroke-width="1" width="5.666666666666657" x="149.26666666666668" y="50" /><polyline fill="none" points="155.0,57 166.63333333333333,47 178.26666666666668,57" stroke="black" stroke-dasharray="2,2" stroke-width="1" /><rect fill="dodgerblue" height="15" stroke="black" stroke-width="1" width="73.79999999999998" x="178.33333333333334" y="50" /><line stroke="black" stroke-width="1" x1="252.20000000000002" x2="257.93333333333334" y1="57" y2="57" /><rect fill="dodgerblue" height="15" stroke="black" stroke-width="1" width="9.333333333333371" x="258.0" y="50" /><line stroke="black" stroke-width="1" x1="267.40000000000003" x2="307.4666666666667" y1="57" y2="57" /><rect fill="dodgerblue" height="15" stroke="black" stroke-width="1" width="3.3333333333333144" x="307.53333333333336" y="50" /><line stroke="black" stroke-width="1" x1="310.93333333333334" x2="340.8" y1="57" y2="57" /><rect fill="dodgerblue" height="15" stroke="black" stroke-width="1" width="5.133333333333326" x="340.8666666666667" y="50" /><line stroke="black" stroke-width="1" x1="346.0666666666667" x2="350.8666666666667" y1="57" y2="57" /><rect fill="dodgerblue" height="15" stroke="black" stroke-width="1" width="9.53333333333336" x="350.93333333333334" y="50" /><line stroke="black" stroke-width="1" x1="360.53333333333336" x2="392.6" y1="57" y2="57" /><rect fill="dodgerblue" height="15" stroke="black" stroke-width="1" width="8.733333333333292" x="392.6666666666667" y="50" /><polygon fill="white" points="401.4666666666667,50 411.20000000000005,50 418.20000000000005,57.5 411.20000000000005,65 401.4666666666667,65" stroke="black" stroke-width="1" /><rect fill="lightcoral" height="15" stroke="black" stroke-width="1" width="16.599999999999994" x="178.33333333333334" y="50" /><rect fill="lightgreen" height="15" stroke="black" stroke-width="1" width="19.933333333333337" x="195.0" y="50" /><rect fill="dodgerblue" height="12" stroke="black" stroke-width="1" width="12" x="518.2" y="30" /><text fill="black" font-size="11px" x="536.2" y="40">Exon/CDS</text><rect fill="white" height="12" stroke="black" stroke-width="1" width="12" x="518.2" y="50" /><text fill="black" font-size="11px" x="536.2" y="60">5' UTR</text><rect fill="white" height="12" stroke="black" stroke-width="1" width="12" x="518.2" y="70" /><text fill="black" font-size="11px" x="536.2" y="80">3' UTR</text><line stroke="black" stroke-width="1" x1="518.2" x2="530.2" y1="96" y2="96" /><text fill="black" font-size="11px" x="536.2" y="100">Intron</text><polyline fill="none" points="518.2,116 524.2,110 530.2,116" stroke="black" stroke-dasharray="2,2" stroke-width="1.5" /><text fill="black" font-size="11px" x="536.2" y="120">Deletion</text><rect fill="lightblue" height="12" stroke="black" stroke-width="1" width="12" x="518.2" y="130" /><text fill="black" font-size="11px" x="536.2" y="140">Kinase</text><rect fill="lightcoral" height="12" stroke="black" stroke-width="1" width="12" x="518.2" y="150" /><text fill="black" font-size="11px" x="536.2" y="160">domain1</text><rect fill="lightgreen" height="12" stroke="black" stroke-width="1" width="12" x="518.2" y="170" /><text fill="black" font-size="11px" x="536.2" y="180">domain2</text></svg>