<?xml version="1.0" encoding="utf-8" ?>
<svg baseProfile="full" height="145" version="1.1" width="950.8" xmlns="http://www.w3.org/2000/svg" xmlns:ev="http://www.w3.org/2001/xml-events" xmlns:xlink="http://www.w3.org/1999/xlink"><defs /><line stroke="black" stroke-width="1" x1="50" x2="550.8" y1="30" y2="30" /><line stroke="black" stroke-width="1" x1="116.6" x2="116.6" y1="30" y2="35" /><text fill="black" font-size="9px" text-anchor="middle" x="116.6" y="25">1 kb</text><line stroke="black" stroke-width="1" x1="183.26666666666668" x2="183.26666666666668" y1="30" y2="35" /><text fill="black" font-size="9px" text-anchor="middle" x="183.26666666666668" y="25">2 kb</text><line stroke="black" stroke-width="1" x1="249.93333333333334" x2="249.93333333333334" y1="30" y2="35" /><text fill="black" font-size="9px" text-anchor="middle" x="249.93333333333334" y="25">3 kb</text><line stroke="black" stroke-width="1" x1="316.6" x2="316.6" y1="30" y2="35" /><text fill="black" font-size="9px" text-anchor="middle" x="316.6" y="25">4 kb</text><line stroke="black" stroke-width="1" x1="383.26666666666665" x2="383.26666666666665" y1="30" y2="35" /><text fill="black" font-size="9px" text-anchor="middle" x="383.26666666666665" y="25">5 kb</text><line stroke="black" stroke-width="1" x1="449.93333333333334" x2="449.93333333333334" y1="30" y2="35" /><text fill="black" font-size="9px" text-anchor="middle" x="449.93333333333334" y="25">6 kb</text><line stroke="black" stroke-width="1" x1="516.6" x2="516.6" y1="30" y2="35" /><text fill="black" font-size="9px" text-anchor="middle" x="516.6" y="25">7 kb</text><line stroke="black" stroke-width="1" x1="50.0" x2="550.8" y1="97" y2="97" /><polygon fill="white" points="50.0,90 76.6,90 83.6,97.5 76.6,105 50.0,105" stroke="black" stroke-width="1" /><rect fill="dodgerblue" height="15" stroke="black" stroke-width="1" width="10.533333333333346" x="83.66666666666666" y="90" /><rect fill="dodgerblue" height="15" stroke="black" stroke-width="1" width="2.5999999999999943" x="149.6" y="90" /><rect fill="dodgerblue" height="15" stroke="black" stroke-width="1" width="3.466666666666697" x="161.26666666666665" y="90" /><rect fill="dodgerblue" height="15" stroke="black" stroke-width="1" width="7.200000000000017" x="170.2" y="90" /><rect fill="dodgerblue" height="15" stroke="black" stroke-width="1" width="8.26666666666668" x="185.73333333333332" y="90" /><rect fill="dodgerblue" height="15" stroke="black" stroke-width="1" width="5.933333333333309" x="238.26666666666668" y="90" /><rect fill="dodgerblue" height="15" stroke="black" stroke-width="1" width="4.133333333333326" x="249.46666666666667" y="90" /><rect fill="dodgerblue" height="15" stroke="black" stroke-width="1" width="6.066666666666663" x="261.0" y="90" /><rect fill="dodgerblue" height="15" stroke="black" stroke-width="1" width="5.400000000000034" x="273.5333333333333" y="90" /><rect fill="dodgerblue" height="15" stroke="black" stroke-width="1" width="11.53333333333336" x="291.66666666666663" y="90" /><rect fill="dodgerblue" height="15" stroke="black" stroke-width="1" width="5.399999999999977" x="309.6666666666667" y="90" /><rect fill="dodgerblue" height="15" stroke="black" stroke-width="1" width="8.266666666666652" x="370.8" y="90" /><rect fill="dodgerblue" height="15" stroke="black" stroke-width="1" width="5.133333333333326" x="384.93333333333334" y="90" /><rect fill="dodgerblue" height="15" stroke="black" stroke-width="1" width="23.666666666666686" x="433.93333333333334" y="90" /><rect fill="dodgerblue" height="15" stroke="black" stroke-width="1" width="19.799999999999955" x="518.2" y="90" /><rect fill="white" height="15" stroke="black" stroke-width="1" width="12.733333333333348" x="538.0666666666666" y="90" /><rect fill="dodgerblue" height="12" stroke="black" stroke-width="1" width="12" x="650.8" y="30" /><text fill="black" font-size="11px" x="668.8" y="40">Exon/CDS</text><rect fill="white" height="12" stroke="black" stroke-width="1" width="12" x="650.8" y="50" /><text fill="black" font-size="11px" x="668.8" y="60">5' UTR</text><rect fill="white" height="12" stroke="black" stroke-width="1" width="12" x="650.8" y="70" /><text fill="black" font-size="11px" x="668.8" y="80">3' UTR</text><line stroke="black" stroke-width="1" x1="650.8" x2="662.8" y1="96" y2="96" /><text fill="black" font-size="11px" x="668.8" y="100">Intron</text></svg>