<?xml version="1.0" encoding="utf-8" ?>
<svg baseProfile="full" height="250" version="1.1" width="950.8" xmlns="http://www.w3.org/2000/svg" xmlns:ev="http://www.w3.org/2001/xml-events" xmlns:xlink="http://www.w3.org/1999/xlink"><defs /><line stroke="black" stroke-width="1" x1="50" x2="550.8" y1="30" y2="30" /><line stroke="black" stroke-width="1" x1="116.6" x2="116.6" y1="30" y2="35" /><text fill="black" font-size="9px" text-anchor="middle" x="116.6" y="25">1 kb</text><line stroke="black" stroke-width="1" x1="183.26666666666668" x2="183.26666666666668" y1="30" y2="35" /><text fill="black" font-size="9px" text-anchor="middle" x="183.26666666666668" y="25">2 kb</text><line stroke="black" stroke-width="1" x1="249.93333333333334" x2="249.93333333333334" y1="30" y2="35" /><text fill="black" font-size="9px" text-anchor="middle" x="249.93333333333334" y="25">3 kb</text><line stroke="black" stroke-width="1" x1="316.6" x2="316.6" y1="30" y2="35" /><text fill="black" font-size="9px" text-anchor="middle" x="316.6" y="25">4 kb</text><line stroke="black" stroke-width="1" x1="383.26666666666665" x2="383.26666666666665" y1="30" y2="35" /><text fill="black" font-size="9px" text-anchor="middle" x="383.26666666666665" y="25">5 kb</text><line stroke="black" stroke-width="1" x1="449.93333333333334" x2="449.93333333333334" y1="30" y2="35" /><text fill="black" font-size="9px" text-anchor="middle" x="449.93333333333334" y="25">6 kb</text><line stroke="black" stroke-width="1" x1="516.6" x2="516.6" y1="30" y2="35" /><text fill="black" font-size="9px" text-anchor="middle" x="516.6" y="25">7 kb</text><line stroke="black" stroke-width="1" x1="50.0" x2="316.53333333333336" y1="97" y2="97" /><line stroke="black" stroke-width="1" x1="383.3333333333333" x2="550.8" y1="97" y2="97" /><polygon fill="white" points="50.0,90 76.6,90 83.6,97.5 76.6,105 50.0,105" stroke="black" stroke-width="1" /><rect fill="dodgerblue" height="15" stroke="black" stroke-width="1" width="10.533333333333346" x="83.66666666666666" y="90" /><rect fill="dodgerblue" height="15" stroke="black" stroke-width="1" width="2.5999999999999943" x="149.6" y="90" /><rect fill="dodgerblue" height="15" stroke="black" stroke-width="1" width="3.466666666666697" x="161.26666666666665" y="90" /><rect fill="dodgerblue" height="15" stroke="black" stroke-width="1" width="7.200000000000017" x="170.2" y="90" /><rect fill="dodgerblue" height="15" stroke="black" stroke-width="1" width="8.26666666666668" x="185.73333333333332" y="90" /><rect fill="dodgerblue" height="15" stroke="black" stroke-width="1" width="5.933333333333309" x="238.26666666666668" y="90" /><rect fill="dodgerblue" height="15" stroke="black" stroke-width="1" width="4.133333333333326" x="249.46666666666667" y="90" /><rect fill="dodgerblue" height="15" stroke="black" stroke-width="1" width="6.066666666666663" x="261.0" y="90" /><rect fill="dodgerblue" height="15" stroke="black" stroke-width="1" width="5.400000000000034" x="273.5333333333333" y="90" /><rect fill="dodgerblue" height="15" stroke="black" stroke-width="1" width="11.53333333333336" x="291.66666666666663" y="90" /><rect fill="dodgerblue" height="15" stroke="black" stroke-width="1" width="5.399999999999977" x="309.6666666666667" y="90" /><polyline fill="none" points="316.6,97 349.93333333333334,87 383.26666666666665,97" stroke="black" stroke-dasharray="2,2" stroke-width="1" /><rect fill="dodgerblue" height="15" stroke="black" stroke-width="1" width="5.133333333333326" x="384.93333333333334" y="90" /><rect fill="dodgerblue" height="15" stroke="black" stroke-width="1" width="23.666666666666686" x="433.93333333333334" y="90" /><rect fill="dodgerblue" height="15" stroke="black" stroke-width="1" width="19.799999999999955" x="518.2" y="90" /><rect fill="white" height="15" stroke="black" stroke-width="1" width="12.733333333333348" x="538.0666666666666" y="90" /><polygon fill="black" points="52.6,82 60.6,82 56.6,88" stroke="black" stroke-width="1.5" /><polygon fill="black" points="79.26666666666667,82 87.26666666666667,82 83.26666666666667,88" stroke="black" stroke-width="1.5" /><line stroke="black" stroke-width="1.2" x1="69.93333333333334" x2="69.93333333333334" y1="82" y2="113" /><line stroke="black" stroke-width="1.2" x1="89.93333333333334" x2="89.93333333333334" y1="82" y2="113" /><rect fill="lightgreen" height="15" stroke="black" stroke-width="1" width="0.2666666666666515" x="266.8" y="90" /><rect fill="lightgreen" height="15" stroke="black" stroke-width="1" width="5.400000000000034" x="273.5333333333333" y="90" /><rect fill="lightgreen" height="15" stroke="black" stroke-width="1" width="11.53333333333336" x="291.66666666666663" y="90" /><rect fill="lightgreen" height="15" stroke="black" stroke-width="1" width="2.7333333333332916" x="309.6666666666667" y="90" /><rect fill="lightcoral" height="15" stroke="black" stroke-width="1" width="2.8000000000000114" x="312.26666666666665" y="90" /><rect fill="lightcoral" height="15" stroke="black" stroke-width="1" width="5.133333333333326" x="384.93333333333334" y="90" /><rect fill="lightcoral" height="15" stroke="black" stroke-width="1" width="3.7333333333333485" x="433.93333333333334" y="90" /><rect fill="lightblue" height="15" stroke="black" stroke-width="1" width="20.066666666666663" x="437.53333333333336" y="90" /><rect fill="lightblue" height="15" stroke="black" stroke-width="1" width="19.799999999999955" x="518.2" y="90" /><rect fill="dodgerblue" height="12" stroke="black" stroke-width="1" width="12" x="650.8" y="30" /><text fill="black" font-size="11px" x="668.8" y="40">Exon/CDS</text><rect fill="white" height="12" stroke="black" stroke-width="1" width="12" x="650.8" y="50" /><text fill="black" font-size="11px" x="668.8" y="60">5' UTR</text><rect fill="white" height="12" stroke="black" stroke-width="1" width="12" x="650.8" y="70" /><text fill="black" font-size="11px" x="668.8" y="80">3' UTR</text><line stroke="black" stroke-width="1" x1="650.8" x2="662.8" y1="96" y2="96" /><text fill="black" font-size="11px" x="668.8" y="100">Intron</text><polyline fill="none" points="650.8,116 656.8,110 662.8,116" stroke="black" stroke-dasharray="2,2" stroke-width="1.5" /><text fill="black" font-size="11px" x="668.8" y="120">Deletion</text><polygon fill="black" points="650.8,132 662.8,132 656.8,140" stroke="black" stroke-width="1.5" /><text fill="black" font-size="11px" x="668.8" y="140">Insertion</text><line stroke="black" stroke-width="1.2" x1="656.8" x2="656.8" y1="150" y2="162" /><text fill="black" font-size="11px" x="668.8" y="160">SNP</text><rect fill="lightblue" height="12" stroke="black" stroke-width="1" width="12" x="650.8" y="170" /><text fill="black" font-size="11px" x="668.8" y="180">domain1</text><rect fill="lightcoral" height="12" stroke="black" stroke-width="1" width="12" x="650.8" y="190" /><text fill="black" font-size="11px" x="668.8" y="200">domain2</text><rect fill="lightgreen" height="12" stroke="black" stroke-width="1" width="12" x="650.8" y="210" /><text fill="black" font-size="11px" x="668.8" y="220">domain3</text></svg>