<?xml version="1.0" encoding="utf-8" ?>
<svg baseProfile="full" height="150" version="1.1" width="1183.3333333333335" xmlns="http://www.w3.org/2000/svg" xmlns:ev="http://www.w3.org/2001/xml-events" xmlns:xlink="http://www.w3.org/1999/xlink"><defs /><line stroke="black" stroke-width="1" x1="50" x2="783.3333333333334" y1="30" y2="30" /><line stroke="black" stroke-width="1" x1="50.0" x2="50.0" y1="30" y2="35" /><text fill="black" font-size="9px" text-anchor="middle" x="50.0" y="25">1 kb</text><line stroke="black" stroke-width="1" x1="116.66666666666667" x2="116.66666666666667" y1="30" y2="35" /><text fill="black" font-size="9px" text-anchor="middle" x="116.66666666666667" y="25">0 kb</text><line stroke="black" stroke-width="1" x1="183.33333333333334" x2="183.33333333333334" y1="30" y2="35" /><text fill="black" font-size="9px" text-anchor="middle" x="183.33333333333334" y="25">1 kb</text><line stroke="black" stroke-width="1" x1="250.0" x2="250.0" y1="30" y2="35" /><text fill="black" font-size="9px" text-anchor="middle" x="250.0" y="25">2 kb</text><line stroke="black" stroke-width="1" x1="316.6666666666667" x2="316.6666666666667" y1="30" y2="35" /><text fill="black" font-size="9px" text-anchor="middle" x="316.6666666666667" y="25">3 kb</text><line stroke="black" stroke-width="1" x1="383.3333333333333" x2="383.3333333333333" y1="30" y2="35" /><text fill="black" font-size="9px" text-anchor="middle" x="383.3333333333333" y="25">4 kb</text><line stroke="black" stroke-width="1" x1="450.0" x2="450.0" y1="30" y2="35" /><text fill="black" font-size="9px" text-anchor="middle" x="450.0" y="25">5 kb</text><line stroke="black" stroke-width="1" x1="516.6666666666667" x2="516.6666666666667" y1="30" y2="35" /><text fill="black" font-size="9px" text-anchor="middle" x="516.6666666666667" y="25">6 kb</text><line stroke="black" stroke-width="1" x1="583.3333333333334" x2="583.3333333333334" y1="30" y2="35" /><text fill="black" font-size="9px" text-anchor="middle" x="583.3333333333334" y="25">7 kb</text><line stroke="black" stroke-width="1" x1="650.0" x2="650.0" y1="30" y2="35" /><text fill="black" font-size="9px" text-anchor="middle" x="650.0" y="25">8 kb</text><line stroke="black" stroke-width="1" x1="716.6666666666666" x2="716.6666666666666" y1="30" y2="35" /><text fill="black" font-size="9px" text-anchor="middle" x="716.6666666666666" y="25">9 kb</text><line stroke="black" stroke-width="1" x1="783.3333333333334" x2="783.3333333333334" y1="30" y2="35" /><text fill="black" font-size="9px" text-anchor="middle" x="783.3333333333334" y="25">10 kb</text><line stroke="black" stroke-width="1" x1="50.0" x2="783.3333333333334" y1="97" y2="97" /><polygon fill="white" points="116.73333333333333,90 143.33333333333331,90 150.33333333333331,97.5 143.33333333333331,105 116.73333333333333,105" stroke="black" stroke-width="1" /><rect fill="dodgerblue" height="15" stroke="black" stroke-width="1" width="10.533333333333331" x="150.4" y="90" /><rect fill="dodgerblue" height="15" stroke="black" stroke-width="1" width="2.5999999999999943" x="216.33333333333334" y="90" /><rect fill="dodgerblue" height="15" stroke="black" stroke-width="1" width="3.4666666666666686" x="228.0" y="90" /><rect fill="dodgerblue" height="15" stroke="black" stroke-width="1" width="7.199999999999989" x="236.93333333333334" y="90" /><rect fill="dodgerblue" height="15" stroke="black" stroke-width="1" width="8.26666666666668" x="252.46666666666667" y="90" /><rect fill="dodgerblue" height="15" stroke="black" stroke-width="1" width="5.933333333333337" x="305.0" y="90" /><rect fill="dodgerblue" height="15" stroke="black" stroke-width="1" width="4.133333333333326" x="316.2" y="90" /><rect fill="dodgerblue" height="15" stroke="black" stroke-width="1" width="6.066666666666663" x="327.73333333333335" y="90" /><rect fill="dodgerblue" height="15" stroke="black" stroke-width="1" width="5.400000000000034" x="340.26666666666665" y="90" /><rect fill="dodgerblue" height="15" stroke="black" stroke-width="1" width="11.53333333333336" x="358.4" y="90" /><rect fill="dodgerblue" height="15" stroke="black" stroke-width="1" width="5.400000000000034" x="376.4" y="90" /><rect fill="dodgerblue" height="15" stroke="black" stroke-width="1" width="8.266666666666652" x="437.53333333333336" y="90" /><rect fill="dodgerblue" height="15" stroke="black" stroke-width="1" width="5.133333333333326" x="451.6666666666667" y="90" /><rect fill="dodgerblue" height="15" stroke="black" stroke-width="1" width="23.666666666666572" x="500.6666666666667" y="90" /><rect fill="dodgerblue" height="15" stroke="black" stroke-width="1" width="19.800000000000068" x="584.9333333333333" y="90" /><rect fill="white" height="15" stroke="black" stroke-width="1" width="12.733333333333348" x="604.8" y="90" /><line stroke="black" stroke-width="1.2" x1="50.0" x2="50.0" y1="82" y2="113" /><line stroke="black" stroke-width="1.2" x1="450.0" x2="450.0" y1="82" y2="113" /><line stroke="black" stroke-width="1.2" x1="783.3333333333334" x2="783.3333333333334" y1="82" y2="113" /><rect fill="dodgerblue" height="12" stroke="black" stroke-width="1" width="12" x="883.3333333333334" y="30" /><text fill="black" font-size="11px" x="901.3333333333334" y="40">Exon/CDS</text><rect fill="white" height="12" stroke="black" stroke-width="1" width="12" x="883.3333333333334" y="50" /><text fill="black" font-size="11px" x="901.3333333333334" y="60">5' UTR</text><rect fill="white" height="12" stroke="black" stroke-width="1" width="12" x="883.3333333333334" y="70" /><text fill="black" font-size="11px" x="901.3333333333334" y="80">3' UTR</text><line stroke="black" stroke-width="1" x1="883.3333333333334" x2="895.3333333333334" y1="96" y2="96" /><text fill="black" font-size="11px" x="901.3333333333334" y="100">Intron</text><line stroke="black" stroke-width="1.2" x1="889.3333333333334" x2="889.3333333333334" y1="110" y2="122" /><text fill="black" font-size="11px" x="901.3333333333334" y="120">SNP</text></svg>