<?xml version="1.0" encoding="utf-8" ?>
<svg baseProfile="full" height="145" version="1.1" width="950.8" xmlns="http://www.w3.org/2000/svg" xmlns:ev="http://www.w3.org/2001/xml-events" xmlns:xlink="http://www.w3.org/1999/xlink"><defs /><line stroke="black" stroke-width="1" x1="50" x2="550.8" y1="30" y2="30" /><line stroke="black" stroke-width="1" x1="116.6" x2="116.6" y1="30" y2="35" /><text fill="black" font-size="9px" text-anchor="middle" x="116.6" y="25">1 kb</text><line stroke="black" stroke-width="1" x1="183.26666666666668" x2="183.26666666666668" y1="30" y2="35" /><text fill="black" font-size="9px" text-anchor="middle" x="183.26666666666668" y="25">2 kb</text><line stroke="black" stroke-width="1" x1="249.93333333333334" x2="249.93333333333334" y1="30" y2="35" /><text fill="black" font-size="9px" text-anchor="middle" x="249.93333333333334" y="25">3 kb</text><line stroke="black" stroke-width="1" x1="316.6" x2="316.6" y1="30" y2="35" /><text fill="black" font-size="9px" text-anchor="middle" x="316.6" y="25">4 kb</text><line stroke="black" stroke-width="1" x1="383.26666666666665" x2="383.26666666666665" y1="30" y2="35" /><text fill="black" font-size="9px" text-anchor="middle" x="383.26666666666665" y="25">5 kb</text><line stroke="black" stroke-width="1" x1="449.93333333333334" x2="449.93333333333334" y1="30" y2="35" /><text fill="black" font-size="9px" text-anchor="middle" x="449.93333333333334" y="25">6 kb</text><line stroke="black" stroke-width="1" x1="516.6" x2="516.6" y1="30" y2="35" /><text fill="black" font-size="9px" text-anchor="middle" x="516.6" y="25">7 kb</text><line stroke="black" stroke-width="1" x1="50.0" x2="550.8" y1="97" y2="97" /><rect fill="white" height="15" stroke="black" stroke-width="1" width="12.733333333333334" x="50.0" y="90" /><rect fill="dodgerblue" height="15" stroke="black" stroke-width="1" width="19.799999999999997" x="62.8" y="90" /><rect fill="dodgerblue" height="15" stroke="black" stroke-width="1" width="23.666666666666686" x="143.2" y="90" /><rect fill="dodgerblue" height="15" stroke="black" stroke-width="1" width="5.133333333333354" x="210.73333333333332" y="90" /><rect fill="dodgerblue" height="15" stroke="black" stroke-width="1" width="8.26666666666668" x="221.73333333333332" y="90" /><rect fill="dodgerblue" height="15" stroke="black" stroke-width="1" width="5.399999999999977" x="285.73333333333335" y="90" /><rect fill="dodgerblue" height="15" stroke="black" stroke-width="1" width="11.533333333333303" x="297.6" y="90" /><rect fill="dodgerblue" height="15" stroke="black" stroke-width="1" width="5.399999999999977" x="321.8666666666667" y="90" /><rect fill="dodgerblue" height="15" stroke="black" stroke-width="1" width="6.066666666666663" x="333.73333333333335" y="90" /><rect fill="dodgerblue" height="15" stroke="black" stroke-width="1" width="4.133333333333326" x="347.2" y="90" /><rect fill="dodgerblue" height="15" stroke="black" stroke-width="1" width="5.933333333333337" x="356.6" y="90" /><rect fill="dodgerblue" height="15" stroke="black" stroke-width="1" width="8.266666666666652" x="406.8" y="90" /><rect fill="dodgerblue" height="15" stroke="black" stroke-width="1" width="7.2000000000000455" x="423.4" y="90" /><rect fill="dodgerblue" height="15" stroke="black" stroke-width="1" width="3.466666666666697" x="436.06666666666666" y="90" /><rect fill="dodgerblue" height="15" stroke="black" stroke-width="1" width="2.599999999999966" x="448.6" y="90" /><rect fill="dodgerblue" height="15" stroke="black" stroke-width="1" width="10.533333333333303" x="506.6" y="90" /><polygon fill="white" points="517.2,90 543.8,90 550.8,97.5 543.8,105 517.2,105" stroke="black" stroke-width="1" /><rect fill="dodgerblue" height="12" stroke="black" stroke-width="1" width="12" x="650.8" y="30" /><text fill="black" font-size="11px" x="668.8" y="40">Exon/CDS</text><rect fill="white" height="12" stroke="black" stroke-width="1" width="12" x="650.8" y="50" /><text fill="black" font-size="11px" x="668.8" y="60">5' UTR</text><rect fill="white" height="12" stroke="black" stroke-width="1" width="12" x="650.8" y="70" /><text fill="black" font-size="11px" x="668.8" y="80">3' UTR</text><line stroke="black" stroke-width="1" x1="650.8" x2="662.8" y1="96" y2="96" /><text fill="black" font-size="11px" x="668.8" y="100">Intron</text></svg>