<?xml version="1.0" encoding="utf-8" ?>
<svg baseProfile="full" height="145" version="1.1" width="950.8" xmlns="http://www.w3.org/2000/svg" xmlns:ev="http://www.w3.org/2001/xml-events" xmlns:xlink="http://www.w3.org/1999/xlink"><defs /><line stroke="black" stroke-width="1" x1="50" x2="550.8" y1="30" y2="30" /><line stroke="black" stroke-width="1" x1="103.86666666666667" x2="103.86666666666667" y1="30" y2="35" /><text fill="black" font-size="9px" text-anchor="middle" x="103.86666666666667" y="25">3086 kb</text><line stroke="black" stroke-width="1" x1="170.53333333333333" x2="170.53333333333333" y1="30" y2="35" /><text fill="black" font-size="9px" text-anchor="middle" x="170.53333333333333" y="25">3085 kb</text><line stroke="black" stroke-width="1" x1="237.2" x2="237.2" y1="30" y2="35" /><text fill="black" font-size="9px" text-anchor="middle" x="237.2" y="25">3084 kb</text><line stroke="black" stroke-width="1" x1="303.8666666666667" x2="303.8666666666667" y1="30" y2="35" /><text fill="black" font-size="9px" text-anchor="middle" x="303.8666666666667" y="25">3083 kb</text><line stroke="black" stroke-width="1" x1="370.53333333333336" x2="370.53333333333336" y1="30" y2="35" /><text fill="black" font-size="9px" text-anchor="middle" x="370.53333333333336" y="25">3082 kb</text><line stroke="black" stroke-width="1" x1="437.2" x2="437.2" y1="30" y2="35" /><text fill="black" font-size="9px" text-anchor="middle" x="437.2" y="25">3081 kb</text><line stroke="black" stroke-width="1" x1="503.8666666666667" x2="503.8666666666667" y1="30" y2="35" /><text fill="black" font-size="9px" text-anchor="middle" x="503.8666666666667" y="25">3080 kb</text><line stroke="black" stroke-width="1" x1="50.0" x2="550.8" y1="97" y2="97" /><rect fill="white" height="15" stroke="black" stroke-width="1" width="12.733333333333334" x="50.0" y="90" /><rect fill="dodgerblue" height="15" stroke="black" stroke-width="1" width="19.799999999999997" x="62.8" y="90" /><rect fill="dodgerblue" height="15" stroke="black" stroke-width="1" width="23.666666666666686" x="143.2" y="90" /><rect fill="dodgerblue" height="15" stroke="black" stroke-width="1" width="5.133333333333354" x="210.73333333333332" y="90" /><rect fill="dodgerblue" height="15" stroke="black" stroke-width="1" width="8.26666666666668" x="221.73333333333332" y="90" /><rect fill="dodgerblue" height="15" stroke="black" stroke-width="1" width="5.399999999999977" x="285.73333333333335" y="90" /><rect fill="dodgerblue" height="15" stroke="black" stroke-width="1" width="11.533333333333303" x="297.6" y="90" /><rect fill="dodgerblue" height="15" stroke="black" stroke-width="1" width="5.399999999999977" x="321.8666666666667" y="90" /><rect fill="dodgerblue" height="15" stroke="black" stroke-width="1" width="6.066666666666663" x="333.73333333333335" y="90" /><rect fill="dodgerblue" height="15" stroke="black" stroke-width="1" width="4.133333333333326" x="347.2" y="90" /><rect fill="dodgerblue" height="15" stroke="black" stroke-width="1" width="5.933333333333337" x="356.6" y="90" /><rect fill="dodgerblue" height="15" stroke="black" stroke-width="1" width="8.266666666666652" x="406.8" y="90" /><rect fill="dodgerblue" height="15" stroke="black" stroke-width="1" width="7.2000000000000455" x="423.4" y="90" /><rect fill="dodgerblue" height="15" stroke="black" stroke-width="1" width="3.466666666666697" x="436.06666666666666" y="90" /><rect fill="dodgerblue" height="15" stroke="black" stroke-width="1" width="2.599999999999966" x="448.6" y="90" /><rect fill="dodgerblue" height="15" stroke="black" stroke-width="1" width="10.533333333333303" x="506.6" y="90" /><polygon fill="white" points="517.2,90 543.8,90 550.8,97.5 543.8,105 517.2,105" stroke="black" stroke-width="1" /><rect fill="dodgerblue" height="12" stroke="black" stroke-width="1" width="12" x="650.8" y="30" /><text fill="black" font-size="11px" x="668.8" y="40">Exon/CDS</text><rect fill="white" height="12" stroke="black" stroke-width="1" width="12" x="650.8" y="50" /><text fill="black" font-size="11px" x="668.8" y="60">5' UTR</text><rect fill="white" height="12" stroke="black" stroke-width="1" width="12" x="650.8" y="70" /><text fill="black" font-size="11px" x="668.8" y="80">3' UTR</text><line stroke="black" stroke-width="1" x1="650.8" x2="662.8" y1="96" y2="96" /><text fill="black" font-size="11px" x="668.8" y="100">Intron</text></svg>