<?xml version="1.0" encoding="utf-8" ?>
<svg baseProfile="full" height="300" version="1.1" width="950.8" xmlns="http://www.w3.org/2000/svg" xmlns:ev="http://www.w3.org/2001/xml-events" xmlns:xlink="http://www.w3.org/1999/xlink"><defs /><rect fill="white" height="15" stroke="black" stroke-width="1" width="12.733333333333334" x="50.0" y="50" /><rect fill="dodgerblue" height="15" stroke="black" stroke-width="1" width="19.799999999999997" x="62.8" y="50" /><line stroke="black" stroke-width="1" x1="82.66666666666666" x2="143.13333333333333" y1="57" y2="57" /><rect fill="dodgerblue" height="15" stroke="black" stroke-width="1" width="23.666666666666686" x="143.2" y="50" /><line stroke="black" stroke-width="1" x1="166.93333333333334" x2="210.66666666666666" y1="57" y2="57" /><rect fill="dodgerblue" height="15" stroke="black" stroke-width="1" width="5.133333333333326" x="210.73333333333332" y="50" /><line stroke="black" stroke-width="1" x1="215.9333333333333" x2="221.66666666666666" y1="57" y2="57" /><rect fill="dodgerblue" height="15" stroke="black" stroke-width="1" width="8.26666666666668" x="221.73333333333332" y="50" /><line stroke="black" stroke-width="1" x1="230.06666666666666" x2="285.66666666666663" y1="57" y2="57" /><rect fill="dodgerblue" height="15" stroke="black" stroke-width="1" width="5.399999999999977" x="285.73333333333335" y="50" /><line stroke="black" stroke-width="1" x1="291.2" x2="297.5333333333333" y1="57" y2="57" /><rect fill="dodgerblue" height="15" stroke="black" stroke-width="1" width="11.533333333333303" x="297.6" y="50" /><line stroke="black" stroke-width="1" x1="309.2" x2="321.8" y1="57" y2="57" /><rect fill="dodgerblue" height="15" stroke="black" stroke-width="1" width="5.400000000000034" x="321.8666666666667" y="50" /><line stroke="black" stroke-width="1" x1="327.33333333333337" x2="333.6666666666667" y1="57" y2="57" /><rect fill="dodgerblue" height="15" stroke="black" stroke-width="1" width="6.066666666666663" x="333.73333333333335" y="50" /><line stroke="black" stroke-width="1" x1="339.8666666666667" x2="347.1333333333333" y1="57" y2="57" /><rect fill="dodgerblue" height="15" stroke="black" stroke-width="1" width="4.133333333333383" x="347.2" y="50" /><line stroke="black" stroke-width="1" x1="351.40000000000003" x2="356.53333333333336" y1="57" y2="57" /><rect fill="dodgerblue" height="15" stroke="black" stroke-width="1" width="5.933333333333337" x="356.6" y="50" /><line stroke="black" stroke-width="1" x1="362.6" x2="406.73333333333335" y1="57" y2="57" /><rect fill="dodgerblue" height="15" stroke="black" stroke-width="1" width="8.266666666666652" x="406.8" y="50" /><line stroke="black" stroke-width="1" x1="415.1333333333333" x2="423.33333333333337" y1="57" y2="57" /><rect fill="dodgerblue" height="15" stroke="black" stroke-width="1" width="7.199999999999989" x="423.40000000000003" y="50" /><line stroke="black" stroke-width="1" x1="430.6666666666667" x2="436.0" y1="57" y2="57" /><rect fill="dodgerblue" height="15" stroke="black" stroke-width="1" width="3.466666666666697" x="436.06666666666666" y="50" /><line stroke="black" stroke-width="1" x1="439.6" x2="448.53333333333336" y1="57" y2="57" /><rect fill="dodgerblue" height="15" stroke="black" stroke-width="1" width="2.599999999999966" x="448.6" y="50" /><line stroke="black" stroke-width="1" x1="451.2666666666667" x2="506.53333333333336" y1="57" y2="57" /><rect fill="dodgerblue" height="15" stroke="black" stroke-width="1" width="10.533333333333303" x="506.6" y="50" /><polygon fill="white" points="517.2,50 543.8,50 550.8,57.5 543.8,65 517.2,65" stroke="black" stroke-width="1" /><line stroke="black" stroke-width="1.2" x1="82.73333333333333" x2="82.73333333333333" y1="42" y2="73" /><line stroke="black" stroke-width="1.2" x1="102.73333333333333" x2="102.73333333333333" y1="42" y2="73" /><rect fill="dodgerblue" height="12" stroke="black" stroke-width="1" width="12" x="650.8" y="30" /><text fill="black" font-size="11px" x="668.8" y="40">Exon/CDS</text><rect fill="white" height="12" stroke="black" stroke-width="1" width="12" x="650.8" y="50" /><text fill="black" font-size="11px" x="668.8" y="60">5' UTR</text><rect fill="white" height="12" stroke="black" stroke-width="1" width="12" x="650.8" y="70" /><text fill="black" font-size="11px" x="668.8" y="80">3' UTR</text><line stroke="black" stroke-width="1" x1="650.8" x2="662.8" y1="96" y2="96" /><text fill="black" font-size="11px" x="668.8" y="100">Intron</text><line stroke="black" stroke-width="1.2" x1="656.8" x2="656.8" y1="110" y2="122" /><text fill="black" font-size="11px" x="668.8" y="120">SNP</text></svg>